<?xml version="1.0" encoding="UTF-8" standalone="no"?>
<!-- Created with Inkscape (http://www.inkscape.org/) -->

<svg
   width="210mm"
   height="297mm"
   viewBox="0 0 210 297"
   version="1.1"
   id="svg5"
   sodipodi:docname="upload-file.svg"
   inkscape:export-filename="/home/vitalii/Документы/Web/AVLabs/avlabs/img/icons/upload-file.png"
   inkscape:export-xdpi="96"
   inkscape:export-ydpi="96"
   inkscape:version="1.1.2 (0a00cf5339, 2022-02-04)"
   xmlns:inkscape="http://www.inkscape.org/namespaces/inkscape"
   xmlns:sodipodi="http://sodipodi.sourceforge.net/DTD/sodipodi-0.dtd"
   xmlns="http://www.w3.org/2000/svg"
   xmlns:svg="http://www.w3.org/2000/svg">
  <sodipodi:namedview
     id="namedview7"
     pagecolor="#ffffff"
     bordercolor="#666666"
     borderopacity="1.0"
     inkscape:pageshadow="2"
     inkscape:pageopacity="0.0"
     inkscape:pagecheckerboard="0"
     inkscape:document-units="mm"
     showgrid="false"
     inkscape:zoom="0.42582772"
     inkscape:cx="-100.9798"
     inkscape:cy="562.43403"
     inkscape:window-width="1366"
     inkscape:window-height="742"
     inkscape:window-x="0"
     inkscape:window-y="0"
     inkscape:window-maximized="1"
     inkscape:current-layer="g1374" />
  <defs
     id="defs2" />
  <g
     inkscape:label="Слой 1"
     inkscape:groupmode="layer"
     id="layer1">
    <path
       style="fill:#000000;stroke-width:0.264583"
       id="path946"
       d="" />
    <path
       style="fill:#000000;stroke-width:0.264583"
       id="path908"
       d="" />
    <g
       id="g1261"
       style="fill:#000000">
      <g
         id="g1374"
         style="fill:#800000">
        <g
           id="g1531"
           style="fill:#000000">
          <path
             style="fill:#000000;stroke-width:0.62134;fill-opacity:1"
             d="m 68.721056,78.468309 v -9.941425 h -3.880644 -3.880641 l 8.851352,-8.851353 8.851355,-8.851354 8.851355,8.851354 8.851355,8.851353 h -3.880644 -3.880643 v 9.941425 9.941422 h -9.941423 -9.941422 z"
             id="path1003" />
          <path
             style="fill:#000000;stroke-width:0.62134;fill-opacity:1"
             d="M 42.727763,87.456659 C 32.778993,85.297231 26.692425,78.641013 24.573285,67.603067 23.468546,61.84884 26.551778,53.124051 31.331312,48.479505 c 2.81941,-2.739781 7.081729,-5.427514 8.607181,-5.427514 0.412192,0 1.658821,-1.706176 2.770288,-3.791503 3.499504,-6.565736 10.590038,-10.479405 17.502661,-9.660707 2.992964,0.354473 3.185557,0.278302 6.240166,-2.468055 6.993721,-6.287957 16.091649,-8.95669 24.890497,-7.301232 7.46692,1.404861 12.546375,4.223371 17.459595,9.688041 3.18942,3.547404 4.56672,5.980192 6.18383,10.922789 0.83612,2.555512 1.59662,3.620007 3.39915,4.757896 2.54826,1.608648 7.14035,6.549559 8.4682,9.111464 0.46408,0.895366 1.30006,3.634062 1.85774,6.085988 0.93718,4.120446 0.93734,4.802436 0.002,9.005715 -1.52122,6.837633 -6.11721,13.129477 -11.6631,15.966641 -3.4984,1.789711 -9.56448,3.02128 -14.93169,3.031519 l -4.815667,0.0092 v -4.660042 -4.660043 l 4.815377,-0.04617 c 5.94001,-0.05696 7.02976,-0.253182 10.09747,-1.818206 4.79169,-2.444541 7.61956,-7.009797 7.69943,-12.429821 0.10026,-6.803135 -4.43592,-12.795739 -10.62249,-14.033055 -1.74728,-0.349456 -1.93946,-0.640204 -2.3202,-3.510372 -1.04147,-7.850987 -6.25847,-14.628993 -13.306229,-17.287661 -4.596011,-1.733783 -12.0235,-1.464252 -16.322929,0.592333 -3.292427,1.574893 -8.816697,6.858508 -9.896493,9.465363 l -0.731433,1.765837 -1.545437,-1.215638 c -5.847386,-4.599557 -15.710161,0.253468 -15.710161,7.730259 0,2.161834 -0.04965,2.205543 -2.505313,2.205543 -7.410723,0 -13.072102,6.19791 -13.111107,14.353659 -0.02851,5.96025 3.421904,10.810298 9.239014,12.986761 2.607371,0.975539 4.841555,1.241168 10.439416,1.241168 h 7.122088 v 4.660043 4.660042 l -6.990061,-0.0494 c -3.844536,-0.02715 -8.761156,-0.433819 -10.925826,-0.903674 z"
             id="path1042" />
        </g>
      </g>
    </g>
  </g>
</svg>
